<mxfile host="app.diagrams.net" modified="2023-09-11T21:20:42.641Z" agent="Mozilla/5.0 (Windows NT 10.0; Win64; x64) AppleWebKit/537.36 (KHTML, like Gecko) Chrome/116.0.0.0 Safari/537.36" etag="lPcmTbWeUUp1dJvYalrc" version="21.7.4" type="device">
  <diagram name="Page-1" id="YMwYUpeAtMog64VNF7rA">
    <mxGraphModel dx="1195" dy="1758" grid="1" gridSize="10" guides="1" tooltips="1" connect="1" arrows="1" fold="1" page="1" pageScale="1" pageWidth="850" pageHeight="1100" math="0" shadow="0">
      <root>
        <mxCell id="0" />
        <mxCell id="1" parent="0" />
        <mxCell id="xfVQPXcTFt1CaZBx9VX3-21" value="" style="rounded=1;whiteSpace=wrap;html=1;" vertex="1" parent="1">
          <mxGeometry x="202.5" y="-40" width="605" height="570" as="geometry" />
        </mxCell>
        <mxCell id="xfVQPXcTFt1CaZBx9VX3-1" value="&lt;font face=&quot;Verdana&quot; style=&quot;font-size: 18px;&quot;&gt;calcsrv11&lt;br&gt;(postgresql)&lt;/font&gt;" style="shape=datastore;whiteSpace=wrap;html=1;" vertex="1" parent="1">
          <mxGeometry x="630" y="190" width="140" height="140" as="geometry" />
        </mxCell>
        <mxCell id="xfVQPXcTFt1CaZBx9VX3-20" style="edgeStyle=orthogonalEdgeStyle;rounded=0;orthogonalLoop=1;jettySize=auto;html=1;entryX=1.01;entryY=0.597;entryDx=0;entryDy=0;entryPerimeter=0;" edge="1" parent="1" source="xfVQPXcTFt1CaZBx9VX3-2" target="xfVQPXcTFt1CaZBx9VX3-12">
          <mxGeometry relative="1" as="geometry" />
        </mxCell>
        <mxCell id="xfVQPXcTFt1CaZBx9VX3-2" value="" style="rounded=1;whiteSpace=wrap;html=1;" vertex="1" parent="1">
          <mxGeometry x="240" y="50" width="310" height="360" as="geometry" />
        </mxCell>
        <mxCell id="xfVQPXcTFt1CaZBx9VX3-7" style="edgeStyle=orthogonalEdgeStyle;rounded=0;orthogonalLoop=1;jettySize=auto;html=1;exitX=1;exitY=0.5;exitDx=0;exitDy=0;entryX=0.5;entryY=1;entryDx=0;entryDy=0;" edge="1" parent="1" source="xfVQPXcTFt1CaZBx9VX3-3" target="xfVQPXcTFt1CaZBx9VX3-1">
          <mxGeometry relative="1" as="geometry" />
        </mxCell>
        <mxCell id="xfVQPXcTFt1CaZBx9VX3-8" style="edgeStyle=orthogonalEdgeStyle;rounded=0;orthogonalLoop=1;jettySize=auto;html=1;exitX=1;exitY=0.25;exitDx=0;exitDy=0;entryX=1;entryY=0.5;entryDx=0;entryDy=0;" edge="1" parent="1" source="xfVQPXcTFt1CaZBx9VX3-3" target="xfVQPXcTFt1CaZBx9VX3-4">
          <mxGeometry relative="1" as="geometry" />
        </mxCell>
        <mxCell id="xfVQPXcTFt1CaZBx9VX3-3" value="Django&lt;br&gt;(web framework)" style="rounded=1;whiteSpace=wrap;html=1;" vertex="1" parent="1">
          <mxGeometry x="335" y="320" width="120" height="60" as="geometry" />
        </mxCell>
        <mxCell id="xfVQPXcTFt1CaZBx9VX3-4" value="Apache&lt;br&gt;(serve static files)" style="rounded=1;whiteSpace=wrap;html=1;" vertex="1" parent="1">
          <mxGeometry x="335" y="230" width="120" height="60" as="geometry" />
        </mxCell>
        <mxCell id="xfVQPXcTFt1CaZBx9VX3-9" style="edgeStyle=orthogonalEdgeStyle;rounded=0;orthogonalLoop=1;jettySize=auto;html=1;exitX=0;exitY=0.5;exitDx=0;exitDy=0;entryX=0;entryY=0.5;entryDx=0;entryDy=0;" edge="1" parent="1" source="xfVQPXcTFt1CaZBx9VX3-5" target="xfVQPXcTFt1CaZBx9VX3-3">
          <mxGeometry relative="1" as="geometry" />
        </mxCell>
        <mxCell id="xfVQPXcTFt1CaZBx9VX3-5" value="Daphne&lt;br&gt;(serve page files)" style="rounded=1;whiteSpace=wrap;html=1;" vertex="1" parent="1">
          <mxGeometry x="335" y="140" width="120" height="60" as="geometry" />
        </mxCell>
        <mxCell id="xfVQPXcTFt1CaZBx9VX3-6" value="&lt;font face=&quot;Verdana&quot; style=&quot;font-size: 18px;&quot;&gt;tacclinux (server)&lt;/font&gt;" style="text;strokeColor=none;align=center;fillColor=none;html=1;verticalAlign=middle;whiteSpace=wrap;rounded=0;" vertex="1" parent="1">
          <mxGeometry x="322.5" y="70" width="145" height="50" as="geometry" />
        </mxCell>
        <mxCell id="xfVQPXcTFt1CaZBx9VX3-11" style="edgeStyle=orthogonalEdgeStyle;rounded=0;orthogonalLoop=1;jettySize=auto;html=1;exitX=0.55;exitY=0.95;exitDx=0;exitDy=0;exitPerimeter=0;entryX=-0.013;entryY=0.411;entryDx=0;entryDy=0;entryPerimeter=0;" edge="1" parent="1" source="xfVQPXcTFt1CaZBx9VX3-10" target="xfVQPXcTFt1CaZBx9VX3-2">
          <mxGeometry relative="1" as="geometry">
            <Array as="points">
              <mxPoint x="133" y="198" />
            </Array>
          </mxGeometry>
        </mxCell>
        <mxCell id="xfVQPXcTFt1CaZBx9VX3-10" value="tacclab.org&lt;br&gt;(google domains)" style="ellipse;shape=cloud;whiteSpace=wrap;html=1;" vertex="1" parent="1">
          <mxGeometry x="50" y="50" width="150" height="110" as="geometry" />
        </mxCell>
        <mxCell id="xfVQPXcTFt1CaZBx9VX3-13" value="" style="edgeStyle=orthogonalEdgeStyle;rounded=0;orthogonalLoop=1;jettySize=auto;html=1;" edge="1" parent="1" source="xfVQPXcTFt1CaZBx9VX3-12" target="xfVQPXcTFt1CaZBx9VX3-10">
          <mxGeometry relative="1" as="geometry">
            <Array as="points">
              <mxPoint x="120" y="190" />
              <mxPoint x="120" y="190" />
            </Array>
          </mxGeometry>
        </mxCell>
        <mxCell id="xfVQPXcTFt1CaZBx9VX3-12" value="Dedicated Stations" style="image;points=[];aspect=fixed;html=1;align=center;shadow=0;dashed=0;image=img/lib/allied_telesis/computer_and_terminals/Personal_Computer.svg;" vertex="1" parent="1">
          <mxGeometry x="90" y="250" width="59.03" height="80" as="geometry" />
        </mxCell>
        <mxCell id="xfVQPXcTFt1CaZBx9VX3-16" style="edgeStyle=orthogonalEdgeStyle;rounded=0;orthogonalLoop=1;jettySize=auto;html=1;entryX=1;entryY=0.75;entryDx=0;entryDy=0;" edge="1" parent="1" source="xfVQPXcTFt1CaZBx9VX3-14" target="xfVQPXcTFt1CaZBx9VX3-3">
          <mxGeometry relative="1" as="geometry">
            <Array as="points">
              <mxPoint x="500" y="365" />
            </Array>
          </mxGeometry>
        </mxCell>
        <mxCell id="xfVQPXcTFt1CaZBx9VX3-19" style="edgeStyle=orthogonalEdgeStyle;rounded=0;orthogonalLoop=1;jettySize=auto;html=1;exitX=0.5;exitY=0;exitDx=0;exitDy=0;entryX=0.5;entryY=0;entryDx=0;entryDy=0;" edge="1" parent="1" source="xfVQPXcTFt1CaZBx9VX3-14" target="xfVQPXcTFt1CaZBx9VX3-5">
          <mxGeometry relative="1" as="geometry">
            <Array as="points">
              <mxPoint x="505" y="130" />
              <mxPoint x="395" y="130" />
            </Array>
          </mxGeometry>
        </mxCell>
        <mxCell id="xfVQPXcTFt1CaZBx9VX3-14" value="Redis&lt;br&gt;(websockets)" style="rounded=1;whiteSpace=wrap;html=1;" vertex="1" parent="1">
          <mxGeometry x="467.5" y="140" width="75" height="60" as="geometry" />
        </mxCell>
        <mxCell id="xfVQPXcTFt1CaZBx9VX3-23" value="&lt;font face=&quot;Verdana&quot; style=&quot;&quot;&gt;&lt;span style=&quot;font-size: 24px;&quot;&gt;UTEP.edu&lt;/span&gt;&lt;br&gt;&lt;/font&gt;&lt;font size=&quot;3&quot; face=&quot;Verdana&quot; style=&quot;&quot;&gt;(internal network)&lt;/font&gt;&lt;font face=&quot;Verdana&quot; style=&quot;font-size: 24px;&quot;&gt;&amp;nbsp;&lt;/font&gt;" style="text;strokeColor=none;align=center;fillColor=none;html=1;verticalAlign=middle;whiteSpace=wrap;rounded=0;" vertex="1" parent="1">
          <mxGeometry x="402.5" y="-30" width="205" height="60" as="geometry" />
        </mxCell>
      </root>
    </mxGraphModel>
  </diagram>
</mxfile>
